<svg xmlns="http://www.w3.org/2000/svg" viewBox="0.0849788 -0.0409032 799.9 40.2">
  <path d="M395.9375 39.9063C387.6875 39.8125 381.625 39.625 381.6875 39.4688 381.75 39.3125 383.4375 38.875 385.4375 38.4688 390.75 37.5 393.875 36.6563 395.5 35.75L397 34.9688 395.5 34.4688C393.875 33.9375 387.0625 33.375 382.375 33.3438 378.1875 33.3438 378.125 32.8438 382.375 32.5938 387.1875 32.3125 391.8125 31.1875 394.5 29.625 396.6875 28.3438 398.6875 25.8438 398.8125 24.3125 398.8125 23.875 399.0625 23.2188 399.375 22.875 400 22.0938 400.375 22.5313 400.875 24.6875 401.875 28.875 407.6875 32.0625 416.125 33.0313 417.875 33.25 419.375 33.5313 419.375 33.6875 419.375 33.8438 416.3125 33.9688 412.5625 33.9688 408.875 33.9688 404.9375 34.125 403.8125 34.3125L401.8125 34.6563 403.0625 35.3438C404.25 35.9688 410.25 37.5313 417.0625 38.9375 418.75 39.3125 419.9375 39.7188 419.6875 39.9063 419.5 40.0938 417.375 40.1875 414.8125 40.1563 412.3125 40.125 403.875 40 395.9375 39.9063ZM428.1875 27.0313C423.8125 26.6563 420.9375 25.4688 418.4375 23 416.125 20.7188 414.1875 16.4688 415.5 16.4688 415.75 16.4688 416.875 17.1563 418 18 420 19.5 425.625 22.3125 431.375 24.75 433 25.4375 434.375 26.1875 434.5 26.4375 434.75 27.0313 431.625 27.3438 428.1875 27.0313ZM364.6875 26.4688C364.375 26.1875 365.1875 25.5938 367.25 24.6563 374.9375 21.1563 380 18.5625 381.6875 17.2813 384.75 14.8438 385.1875 15.6563 383.0625 19.625 381.375 22.75 379 24.625 375.375 25.6875 372.0625 26.6563 365.5 27.125 364.6875 26.4688ZM737.1875 22.8438C720.1875 20.25 667.6875 16.5625 616.875 14.4375 609.5 14.125 606.875 13.9063 606.875 13.625 606.875 13.4688 614.75 13.3438 625.5 13.3438 695.8125 13.3438 767.875 9.3438 787.8125 4.375 791.375 3.4688 795 1.875 795 1.1875 795 .875 794.5.9688 793.3125 1.5313 787.125 4.4063 768.4375 6.8125 739.6875 8.4688 703.75 10.5313 659.8125 11.3125 593.4375 11.0625 519.75 10.7813 464.6875 9.375 439.25 7.0625 431.5 6.375 422.0625 6.25 418 6.8125 413.9375 7.3438 409.6875 8.5313 407.125 9.8125 404.3125 11.2813 401.375 14.25 400.875 16.25 400.375 18.0625 399.625 18.125 399.0625 16.4063 397.6875 12.375 393.3125 9.3125 386.375 7.6563 382.5625 6.75 381.5 6.6563 375 6.5313 369.5 6.4375 366.1875 6.5625 360.9375 7.0625 336.125 9.375 281.4375 10.7813 206.25 11.0625 147.0625 11.2813 107.75 10.7188 75 9.25 39.5 7.6563 15.5625 5.0938 8 2.0625 5.4375 1.0625 4.6875 1.25 7.0625 2.3125 18.25 7.4688 74.875 11.5938 149.6875 12.7188 160.6875 12.875 174.9375 13.0313 181.4375 13.0313 193.6875 13.0313 196.9375 13.4375 187.625 13.7813 177.4375 14.1875 139.125 16.1563 126.25 16.9375 97.4375 18.7188 72.125 20.9063 61.75 22.5313L56.875 23.2813 58.3125 22.3438C63.1875 19.1563 63.8125 18.375 62.4375 17.125 60.875 15.6563 56.8125 15 44.375 14.125 18.375 12.3125 5.3125 10.0313 1.4375 6.5938-.3125 5.0625-.375 3.625 1.3125 1.9063 3.3125-.1875 3.4375-.2188 10.75.5 33.25 2.75 76.4375 4.9063 126.25 6.3125 225.5625 9.0938 309.4375 8.25 362.1875 3.9375 379.9375 2.4688 386.6875 2.875 392.75 5.7813 395.5 7.125 398.5 10.0313 399.125 12 399.625 13.625 400.3125 13.5 400.875 11.75 401.375 10.0938 403.8125 7.5625 406.25 6.0938 410.9375 3.25 420.1875 2.4375 434.0625 3.625 457.3125 5.5938 479.125 6.625 515.5 7.4375 534.5625 7.8438 620.5625 7.6563 641.5625 7.125 713.9375 5.3438 759.75 3.2813 788.9375.5 792.6875.1563 795.8125-.0938 795.9375-.0313 797.0625.5 800 3.9063 800 4.625 800 7.7188 793.9375 10.1563 781.75 12.0313 775.8125 12.9688 769.6875 13.5625 755.5625 14.5938 743.125 15.5 740.5 15.875 738.125 17.1875 736.1875 18.1875 736.875 19.625 740.3125 21.8438 741.875 22.8438 742.9375 23.6563 742.625 23.625 742.375 23.625 739.9375 23.2813 737.1875 22.8438ZM432.375 19.7813C428.125 19.2188 425.375 18 423.1875 15.75 421.1875 13.75 419 9.6563 419.6875 9.3125 419.9375 9.2188 420.625 9.4688 421.3125 9.9063 426 12.9375 428.5 14.2813 433.625 16.5 436.75 17.875 439.375 19.1875 439.375 19.4375 439.375 20.2813 436.9375 20.4063 432.375 19.7813ZM360.1875 19.0625C359.9375 18.7188 360.5 18.25 361.9375 17.625 369.625 14.3438 374.125 12.0938 376.375 10.5 377.8125 9.5 379.1875 8.75 379.5 8.9063 380.0625 9.1875 378.5 12.6563 376.8125 14.7813 374.5 17.6563 369 19.5938 363 19.5938 361.3125 19.5938 360.4375 19.4375 360.1875 19.0625Z" fill="#f1f1f1"/>
</svg>